<svg width="192" height="192" viewBox="0 0 192 192" fill="none" xmlns="http://www.w3.org/2000/svg">
<rect width="192" height="192" rx="18" fill="url(#paint0_linear_851_38)"/>
<path d="M157.623 118.892L95.9993 134.905L34.3752 118.892L95.9993 102.877L157.623 118.892Z" fill="#0052F0" stroke="#071750" stroke-width="2"/>
<path d="M160.599 150.264L96.9998 166.79V136.711L160.599 120.185V150.264Z" fill="white" stroke="#071750" stroke-width="2"/>
<path d="M94.9993 136.711V166.79L31.3997 150.264V120.185L94.9993 136.711Z" fill="white" fill-opacity="0.9" stroke="#071750" stroke-width="2"/>
<path d="M157.511 80.9575L95.9993 96.4789L34.4875 80.9575L95.9993 65.436L157.511 80.9575Z" fill="#0052F0" stroke="#071750" stroke-width="2"/>
<path d="M160.599 111.392L96.9998 127.441V98.2887L160.599 82.2408V111.392Z" fill="white" stroke="#071750" stroke-width="2"/>
<path d="M94.9993 98.2887V127.441L31.3997 111.392V82.2408L94.9993 98.2887Z" fill="white" fill-opacity="0.9" stroke="#071750" stroke-width="2"/>
<path d="M157.569 41.7598L95.9993 57.5264L34.4299 41.7598L95.9993 25.9922L157.569 41.7598Z" fill="#0052F0" stroke="#071750" stroke-width="2"/>
<path d="M160.599 72.6633L96.9998 88.9514V59.3352L160.599 43.0481V72.6633Z" fill="white" stroke="#071750" stroke-width="2"/>
<path d="M94.9993 59.3352V88.9514L31.3997 72.6633V43.0481L94.9993 59.3352Z" fill="white" fill-opacity="0.9" stroke="#071750" stroke-width="2"/>
<defs>
<linearGradient id="paint0_linear_851_38" x1="96" y1="0" x2="96" y2="192" gradientUnits="userSpaceOnUse">
<stop stop-color="#00041B"/>
<stop offset="1" stop-color="#071750"/>
</linearGradient>
</defs>
</svg>
