<svg width="484" height="137" viewBox="0 0 484 137" fill="none" xmlns="http://www.w3.org/2000/svg">
<rect x="177" y="125" width="240" height="7" fill="#0052F0"/>
<path d="M211.862 28.088C215.894 29.496 218.134 32.376 218.134 38.264C218.134 46.904 212.374 51 205.526 51C200.662 51 178.134 51 178.134 51V6.2H195.35C196.63 6.2 198.422 6.2 200.918 6.2C210.198 6.2 216.214 9.976 216.214 19C216.214 23.864 214.678 26.552 211.862 28.088ZM198.102 15.096C195.606 15.096 189.206 15.096 187.862 15.096V24.504C191.446 24.504 196.054 24.504 198.55 24.504C203.03 24.504 206.678 24.312 206.678 19.832C206.678 15.352 202.838 15.096 198.102 15.096ZM200.15 42.168C204.95 42.168 208.598 41.848 208.598 37.24C208.598 33.016 205.91 32.312 201.43 32.312C198.358 32.312 190.486 32.312 187.862 32.312V42.168H195.99C199.83 42.168 196.886 42.168 200.15 42.168ZM258.464 35.32H229.792C230.496 40.12 233.376 42.488 239.648 42.488C245.472 42.488 248.352 40.888 249.248 38.52H258.656C257.696 46.264 251.424 51 239.648 51C227.36 51 220.384 44.856 220.384 32.888C220.384 21.176 227.552 14.776 239.648 14.776C244.704 14.776 248.8 16.056 251.808 18.168V18.104C258.72 22.84 259.36 30.392 258.848 35.32H258.464ZM239.648 23.288C234.272 23.288 231.328 25.272 230.176 28.92H249.12C248.352 26.232 246.56 23.288 239.648 23.288ZM279.394 29.24C287.522 30.456 296.738 31.864 296.738 40.376C296.738 49.272 290.338 51 279.33 51C271.202 51 265.634 49.528 262.754 46.648C260.258 44.152 260.258 41.144 260.322 39.288V38.584H270.306V38.904C270.306 41.976 272.61 43.384 279.074 43.384C282.978 43.384 286.69 42.872 286.69 40.504C286.69 37.816 283.234 37.304 279.33 36.856C278.818 36.792 278.306 36.728 277.794 36.664C267.49 35.32 261.09 33.016 261.09 25.848C261.09 20.856 263.97 14.904 277.794 14.904C292.642 14.904 295.778 21.496 295.778 27V27.32H285.858V27C285.858 24.184 283.426 22.648 277.794 22.648C272.354 22.648 271.202 24.632 271.202 25.72C271.202 27.32 272.29 28.216 278.562 29.176L279.394 29.24ZM311.912 23.416V36.152V36.92C311.912 42.104 314.216 41.4 323.56 40.888V50.36C323.56 50.36 321.64 51 311.912 51C302.12 51 302.12 43 302.12 37.816V23.416H297.384V15.224H302.12V4.856H311.912V15.224H323.56V23.416H311.912ZM381.55 28.088C385.582 29.496 387.822 32.376 387.822 38.264C387.822 46.904 382.062 51 375.214 51C370.35 51 347.822 51 347.822 51V6.2H365.038C366.318 6.2 368.11 6.2 370.606 6.2C379.886 6.2 385.902 9.976 385.902 19C385.902 23.864 384.366 26.552 381.55 28.088ZM367.79 15.096C365.294 15.096 358.894 15.096 357.55 15.096V24.504C361.134 24.504 365.742 24.504 368.238 24.504C372.718 24.504 376.366 24.312 376.366 19.832C376.366 15.352 372.526 15.096 367.79 15.096ZM369.838 42.168C374.638 42.168 378.286 41.848 378.286 37.24C378.286 33.016 375.598 32.312 371.118 32.312C368.046 32.312 360.174 32.312 357.55 32.312V42.168H365.678C369.518 42.168 366.574 42.168 369.838 42.168ZM410.04 14.456C420.984 14.456 430.072 20.28 430.072 32.76C430.072 45.368 420.984 51 410.04 51C399.16 51 390.072 45.176 390.072 32.76C390.072 20.408 399.16 14.456 410.04 14.456ZM410.04 42.168C416.184 42.168 420.536 39.224 420.536 32.76C420.536 26.104 416.184 23.352 410.04 23.352C403.96 23.352 399.608 25.976 399.608 32.76C399.608 39.48 403.96 42.168 410.04 42.168ZM465.813 15.096L451.733 33.08L465.813 51H454.293L445.973 40.376L437.653 51H426.197L440.213 33.08L426.197 15.096H437.653L445.973 25.784L454.293 15.096H465.813ZM210.821 91.248V73.2H220.613V118H210.821V100.016H187.461V118H177.733V73.2H187.461V91.248H210.821ZM250.429 81.456C261.373 81.456 270.461 87.28 270.461 99.76C270.461 112.368 261.373 118 250.429 118C239.549 118 230.461 112.176 230.461 99.76C230.461 87.408 239.549 81.456 250.429 81.456ZM250.429 109.168C256.573 109.168 260.925 106.224 260.925 99.76C260.925 93.104 256.573 90.352 250.429 90.352C244.349 90.352 239.997 92.976 239.997 99.76C239.997 106.48 244.349 109.168 250.429 109.168ZM297.948 96.24C306.076 97.456 315.292 98.864 315.292 107.376C315.292 116.272 308.892 118 297.884 118C289.756 118 284.188 116.528 281.308 113.648C278.812 111.152 278.812 108.144 278.876 106.288V105.584H288.86V105.904C288.86 108.976 291.164 110.384 297.628 110.384C301.532 110.384 305.244 109.872 305.244 107.504C305.244 104.816 301.788 104.304 297.884 103.856C297.372 103.792 296.86 103.728 296.348 103.664C286.044 102.32 279.644 100.016 279.644 92.848C279.644 87.856 282.524 81.904 296.348 81.904C311.196 81.904 314.332 88.496 314.332 94V94.32H304.412V94C304.412 91.184 301.98 89.648 296.348 89.648C290.908 89.648 289.756 91.632 289.756 92.72C289.756 94.32 290.844 95.216 297.116 96.176L297.948 96.24ZM337.506 90.416V103.152V103.92C337.506 109.104 339.81 108.4 349.154 107.888V117.36C349.154 117.36 347.234 118 337.506 118C327.714 118 327.714 110 327.714 104.816V90.416H322.978V82.224H327.714V71.856H337.506V82.224H349.154V90.416H337.506ZM368.495 118H358.831V82.352H368.495V118ZM368.495 79.792H358.831V71.088H368.495V79.792ZM401.204 82.096C416.372 82.096 416.756 94.832 416.756 100.08V118H407.092V100.08C407.092 97.264 407.668 90.48 398.388 90.48C389.94 90.48 388.724 95.856 388.724 100.72V118H378.996V82.096H388.724V87.408H389.172C391.476 84.208 394.74 82.096 401.204 82.096ZM456.499 82.48H466.227V114.544C466.227 121.968 464.883 135.28 447.027 135.28C430.899 135.28 427.763 126.576 427.763 121.264C430.323 121.264 435.827 121.264 437.427 121.264C437.683 123.184 439.347 126.896 446.963 126.896C453.555 126.896 456.499 122.608 456.499 116.016V113.456H456.051C453.619 116.528 449.523 118.448 442.739 118.448C427.699 118.448 426.035 105.328 426.035 100.464C426.035 95.216 427.635 82.48 442.803 82.48C449.459 82.48 453.491 84.592 455.923 87.792H456.499V82.48ZM445.619 110.064C454.003 110.064 455.731 105.904 455.731 100.464C455.731 95.6 454.003 90.864 445.619 90.864C436.275 90.864 435.315 97.648 435.315 100.464C435.315 103.088 436.339 110.064 445.619 110.064Z" fill="white"/>
<path d="M136.107 88.2688L81.9995 102.329L27.8921 88.2688L81.9995 74.2073L136.107 88.2688Z" fill="#0052F0" stroke="#071750" stroke-width="2"/>
<path d="M139.083 115.958L83 130.531V104.135L139.083 89.5618V115.958Z" fill="white" stroke="#071750" stroke-width="2"/>
<path d="M80.9995 104.135V130.531L24.9165 115.958V89.5618L80.9995 104.135Z" fill="white" fill-opacity="0.9" stroke="#071750" stroke-width="2"/>
<path d="M135.995 54.6813L81.9995 68.3053L28.0044 54.6813L81.9995 41.0563L135.995 54.6813Z" fill="#0052F0" stroke="#071750" stroke-width="2"/>
<path d="M139.083 81.5397L83 95.691V70.1158L139.083 55.9645V81.5397Z" fill="white" stroke="#071750" stroke-width="2"/>
<path d="M80.9995 70.1158V95.691L24.9165 81.5397V55.9645L80.9995 70.1158Z" fill="white" fill-opacity="0.9" stroke="#071750" stroke-width="2"/>
<path d="M136.052 19.975L81.9995 33.8168L27.9468 19.975L81.9995 6.1322L136.052 19.975Z" fill="#0052F0" stroke="#071750" stroke-width="2"/>
<path d="M139.083 47.2484L83 61.6107V35.6254L139.083 21.2631V47.2484Z" fill="white" stroke="#071750" stroke-width="2"/>
<path d="M80.9995 35.6254V61.6107L24.9165 47.2484V21.2631L80.9995 35.6254Z" fill="white" fill-opacity="0.9" stroke="#071750" stroke-width="2"/>
</svg>
